<svg version="1.1" id="Layer_1" xmlns="http://www.w3.org/2000/svg" xmlns:xlink="http://www.w3.org/1999/xlink" x="0px" y="0px"
	 width="100%" viewBox="0 0 512 512" enable-background="new 0 0 512 512" xml:space="preserve">
<path fill="#000000" opacity="1.000000" stroke="none" 
	d="
M270.000000,1.000001 
	C350.928497,1.000000 431.857025,1.000000 513.000000,1.000000 
	C513.000000,85.020775 513.000000,169.041733 512.730835,253.870544 
	C512.008911,254.218918 511.336975,253.839478 511.135590,253.288132 
	C506.797363,241.411423 498.331451,234.319901 486.008575,232.017029 
	C481.222992,231.122742 476.293488,230.998383 470.998932,230.481232 
	C470.998932,218.916733 471.262146,207.292999 470.915833,195.687469 
	C470.637543,186.362045 468.577972,177.227737 463.935791,169.077866 
	C451.845581,147.852127 433.449768,137.034119 408.929535,137.012619 
	C363.127838,136.972443 317.326111,137.001083 271.524384,137.001083 
	C269.764313,137.001083 268.004211,137.001083 265.998932,137.001083 
	C265.998932,121.715141 266.294128,107.069427 265.838531,92.447121 
	C265.679382,87.339294 267.527069,85.534309 271.982697,83.922523 
	C288.409729,77.980217 297.763092,65.658356 299.824768,48.693035 
	C302.345306,27.951612 291.190491,10.697545 271.842651,2.978823 
	C271.085785,2.676869 270.607880,1.675481 270.000000,1.000001 
z"/>
<path fill="#000000" opacity="1.000000" stroke="none" 
	d="
M0.999999,254.000000 
	C1.000000,169.741089 1.000000,85.482193 1.000000,1.000000 
	C81.687424,1.000000 162.375061,1.000000 243.870651,1.270581 
	C241.839981,3.018854 239.020325,4.534397 236.159592,5.967982 
	C219.710403,14.211052 210.482452,34.717884 214.907104,52.826653 
	C218.875427,69.067825 228.685730,79.759506 244.526291,85.084885 
	C245.887543,85.542511 247.834274,87.174248 247.849136,88.282822 
	C248.064941,104.382095 247.997147,120.485168 247.997147,137.154968 
	C221.752747,137.154968 195.989044,137.154968 169.737213,137.101089 
	C159.169174,137.086975 149.089249,137.126740 138.657074,137.198853 
	C137.207169,137.437134 136.109482,137.643097 134.789368,137.476105 
	C124.645851,137.120712 114.724770,137.138260 104.370598,137.067902 
	C85.198135,137.008362 69.611954,144.161636 57.374908,158.225861 
	C50.235214,166.431625 45.167442,176.096832 44.193878,186.933716 
	C43.041672,199.759079 43.329487,212.714127 43.007095,225.613312 
	C42.963474,227.358597 43.001091,229.105911 43.001091,231.000809 
	C40.273643,231.000809 38.284138,230.971085 36.295738,231.005524 
	C20.448244,231.279861 8.815398,237.897598 2.859197,253.149521 
	C2.681131,253.605484 1.639174,253.724091 0.999999,254.000000 
z"/>
<path fill="#438EFF" opacity="1.000000" stroke="none" 
	d="
M170.225342,137.154968 
	C195.989044,137.154968 221.752747,137.154968 247.997147,137.154968 
	C247.997147,120.485168 248.064941,104.382095 247.849136,88.282822 
	C247.834274,87.174248 245.887543,85.542511 244.526291,85.084885 
	C228.685730,79.759506 218.875427,69.067825 214.907104,52.826653 
	C210.482452,34.717884 219.710403,14.211052 236.159592,5.967982 
	C239.020325,4.534397 241.839981,3.018854 244.339310,1.270581 
	C252.354233,1.000000 260.708466,1.000000 269.531342,1.000001 
	C270.607880,1.675481 271.085785,2.676869 271.842651,2.978823 
	C291.190491,10.697545 302.345306,27.951612 299.824768,48.693035 
	C297.763092,65.658356 288.409729,77.980217 271.982697,83.922523 
	C267.527069,85.534309 265.679382,87.339294 265.838531,92.447121 
	C266.294128,107.069427 265.998932,121.715141 265.998932,137.001083 
	C268.004211,137.001083 269.764313,137.001083 271.524384,137.001083 
	C317.326111,137.001083 363.127838,136.972443 408.929535,137.012619 
	C433.449768,137.034119 451.845581,147.852127 463.935791,169.077866 
	C468.577972,177.227737 470.637543,186.362045 470.915833,195.687469 
	C471.262146,207.292999 470.998932,218.916733 470.998932,230.481232 
	C476.293488,230.998383 481.222992,231.122742 486.008575,232.017029 
	C498.331451,234.319901 506.797363,241.411423 511.135590,253.288132 
	C511.336975,253.839478 512.008911,254.218918 512.730835,254.339203 
	C513.000000,278.687561 513.000000,303.375122 512.747253,328.193970 
	C511.716156,329.349945 510.762970,330.285278 510.186188,331.413116 
	C503.553131,344.382568 493.302032,351.420166 478.421875,351.008301 
	C476.003052,350.941345 473.580750,350.998901 470.998932,350.998901 
	C470.998932,361.537933 470.837463,371.358459 471.033264,381.171875 
	C471.416534,400.380829 465.233826,416.767059 450.762848,429.734863 
	C440.194824,439.205139 427.944550,444.913055 413.650391,444.942383 
	C350.186707,445.072601 286.722473,444.958496 223.258896,445.116241 
	C220.056442,445.124207 216.389618,446.128632 213.729568,447.873962 
	C182.357635,468.458130 151.130096,489.262512 119.909538,510.076355 
	C119.019073,510.669983 118.625351,512.008728 118.000000,513.000000 
	C114.307091,513.000000 110.614182,513.000000 106.802078,512.737122 
	C103.664864,509.696869 102.860130,506.280029 102.924500,502.212982 
	C103.130165,489.219025 103.000763,476.219727 103.000740,463.222504 
	C103.000732,457.270081 103.000732,451.317657 103.000732,444.829071 
	C99.888359,444.829071 97.203133,445.206573 94.659225,444.766754 
	C80.001663,442.232422 67.575546,435.566711 57.758854,424.258911 
	C50.330158,415.701935 45.012684,405.954895 44.146481,394.622955 
	C43.175255,381.917053 43.328812,369.124939 43.007160,356.369995 
	C42.963146,354.624725 43.001091,352.877411 43.001091,351.000000 
	C41.412167,351.000000 40.579071,350.939636 39.756889,351.008881 
	C22.585987,352.454956 10.301472,345.436371 2.887501,329.850647 
	C2.661426,329.375366 1.646917,329.275116 0.999998,329.000000 
	C1.000000,304.312439 1.000000,279.624878 0.999999,254.468658 
	C1.639174,253.724091 2.681131,253.605484 2.859197,253.149521 
	C8.815398,237.897598 20.448244,231.279861 36.295738,231.005524 
	C38.284138,230.971085 40.273643,231.000809 43.001091,231.000809 
	C43.001091,229.105911 42.963474,227.358597 43.007095,225.613312 
	C43.329487,212.714127 43.041672,199.759079 44.193878,186.933716 
	C45.167442,176.096832 50.235214,166.431625 57.374908,158.225861 
	C69.611954,144.161636 85.198135,137.008362 104.632126,137.303223 
	C113.596283,141.844849 114.228447,147.993301 106.606270,154.039246 
	C103.460243,154.410034 100.720642,154.765717 97.588905,155.105286 
	C77.034149,158.977005 62.017429,174.059402 61.155712,192.741318 
	C60.430698,208.459488 61.032410,224.238831 60.969376,240.454926 
	C60.872253,254.034653 60.814011,267.150635 60.841721,280.266418 
	C60.885208,300.848602 60.986687,321.430664 60.979664,342.474121 
	C60.912785,358.043762 60.539768,373.165009 61.042999,388.257050 
	C61.712418,408.333160 79.442276,426.125580 99.343124,427.270996 
	C106.818169,427.388336 113.169785,429.149384 117.875793,435.442261 
	C118.783775,439.502808 120.180061,443.173004 120.273750,446.876160 
	C120.572350,458.678864 120.386665,470.493774 120.387993,482.303986 
	C120.388191,484.049866 120.388031,485.795715 120.388031,488.706238 
	C127.034386,484.136475 132.611664,480.301788 138.516327,476.328735 
	C159.775040,462.245178 180.788483,448.420959 201.590530,434.285645 
	C208.354324,429.689514 215.410339,427.652008 223.588562,427.673920 
	C284.410767,427.836823 345.233673,427.776215 406.056305,427.724030 
	C409.360962,427.721191 412.665161,427.165955 416.374603,426.924957 
	C417.767792,426.865540 418.776855,426.840210 419.740997,426.618988 
	C439.911163,421.991486 453.090088,405.271942 453.116913,383.810547 
	C453.194122,322.070496 453.146301,260.330292 453.140625,198.590134 
	C453.140472,196.926636 453.110199,195.260162 453.010620,193.600082 
	C451.840912,174.100342 435.099152,156.780960 415.489166,155.145416 
	C411.874786,154.932343 408.718140,154.709534 405.561401,154.708725 
	C329.683777,154.689255 253.806168,154.702255 177.928574,154.664093 
	C174.619568,154.662430 171.310806,154.230560 167.758102,153.758606 
	C160.769196,147.676636 161.718658,141.946030 170.225342,137.154968 
M258.069702,18.088985 
	C242.559998,18.248386 230.829315,29.798100 231.386932,44.360126 
	C231.953033,59.143620 243.864761,69.763847 259.773163,69.026215 
	C273.477325,66.911438 282.940796,56.231712 282.643768,43.216354 
	C282.342651,30.021862 272.825104,19.988405 258.069702,18.088985 
M472.117859,248.553406 
	C471.466797,249.668076 470.251984,250.780411 470.247375,251.897736 
	C470.139893,277.942352 470.127350,303.987732 470.277222,330.031891 
	C470.284180,331.239105 471.961823,332.436676 473.762390,333.783813 
	C488.810242,334.556824 495.984711,327.709229 495.990570,312.553894 
	C495.996307,297.743805 496.015411,282.933655 495.984528,268.123627 
	C495.955200,254.041046 487.039215,246.583298 472.117859,248.553406 
M39.852684,248.431488 
	C37.859474,248.475677 35.852005,248.382431 33.875492,248.587524 
	C24.641939,249.545578 18.192781,256.209930 18.098536,265.446747 
	C17.923815,282.570526 17.921871,299.698639 18.097939,316.822418 
	C18.193968,326.162018 25.042978,333.092438 34.371090,333.806519 
	C36.518711,333.970978 38.690628,333.818024 41.649433,333.854706 
	C42.382164,332.584290 43.748169,331.316864 43.754192,330.043030 
	C43.876686,304.129761 43.888763,278.215485 43.707047,252.302887 
	C43.698009,251.014313 41.733936,249.739456 39.852684,248.431488 
z"/>
<path fill="#000000" opacity="1.000000" stroke="none" 
	d="
M118.468658,513.000000 
	C118.625351,512.008728 119.019073,510.669983 119.909538,510.076355 
	C151.130096,489.262512 182.357635,468.458130 213.729568,447.873962 
	C216.389618,446.128632 220.056442,445.124207 223.258896,445.116241 
	C286.722473,444.958496 350.186707,445.072601 413.650391,444.942383 
	C427.944550,444.913055 440.194824,439.205139 450.762848,429.734863 
	C465.233826,416.767059 471.416534,400.380829 471.033264,381.171875 
	C470.837463,371.358459 470.998932,361.537933 470.998932,350.998901 
	C473.580750,350.998901 476.003052,350.941345 478.421875,351.008301 
	C493.302032,351.420166 503.553131,344.382568 510.186188,331.413116 
	C510.762970,330.285278 511.716156,329.349945 512.747253,328.662598 
	C513.000000,390.286957 513.000000,451.573944 513.000000,513.000000 
	C381.645813,513.000000 250.291565,513.000000 118.468658,513.000000 
z"/>
<path fill="#000000" opacity="1.000000" stroke="none" 
	d="
M0.999998,329.468658 
	C1.646917,329.275116 2.661426,329.375366 2.887501,329.850647 
	C10.301472,345.436371 22.585987,352.454956 39.756889,351.008881 
	C40.579071,350.939636 41.412167,351.000000 43.001091,351.000000 
	C43.001091,352.877411 42.963146,354.624725 43.007160,356.369995 
	C43.328812,369.124939 43.175255,381.917053 44.146481,394.622955 
	C45.012684,405.954895 50.330158,415.701935 57.758854,424.258911 
	C67.575546,435.566711 80.001663,442.232422 94.659225,444.766754 
	C97.203133,445.206573 99.888359,444.829071 103.000732,444.829071 
	C103.000732,451.317657 103.000732,457.270081 103.000740,463.222504 
	C103.000763,476.219727 103.130165,489.219025 102.924500,502.212982 
	C102.860130,506.280029 103.664864,509.696869 106.341446,512.737122 
	C71.053055,513.000000 36.106106,513.000000 1.000000,513.000000 
	C1.000000,451.979187 1.000000,390.958252 0.999998,329.468658 
z"/>
<path fill="#FCFDFF" opacity="1.000000" stroke="none" 
	d="
M169.737213,137.101089 
	C161.718658,141.946030 160.769196,147.676636 167.407623,153.977692 
	C161.508011,154.621384 155.713547,154.969681 149.922714,154.917435 
	C147.202515,154.892899 144.489273,154.097198 142.003326,153.399338 
	C148.323654,147.071503 147.247620,141.738373 139.009323,137.166519 
	C149.089249,137.126740 159.169174,137.086975 169.737213,137.101089 
z"/>
<path fill="#FDFDFF" opacity="1.000000" stroke="none" 
	d="
M107.012703,154.024139 
	C114.228447,147.993301 113.596283,141.844849 105.065216,137.391129 
	C114.724770,137.138260 124.645851,137.120712 134.466644,137.616104 
	C127.521957,142.718491 127.159416,147.751068 132.906586,153.898102 
	C124.046326,154.122253 115.529518,154.073196 107.012703,154.024139 
z"/>
<path fill="#4790FF" opacity="1.000000" stroke="none" 
	d="
M133.250046,153.624893 
	C127.159416,147.751068 127.521957,142.718491 134.689087,137.989044 
	C136.109482,137.643097 137.207169,137.437134 138.657074,137.198853 
	C147.247620,141.738373 148.323654,147.071503 141.649048,153.484756 
	C138.459579,153.756165 135.854813,153.690521 133.250046,153.624893 
z"/>
<path fill="#E8EDFC" opacity="1.000000" stroke="none" 
	d="
M132.906586,153.898102 
	C135.854813,153.690521 138.459579,153.756165 141.418610,153.736374 
	C144.489273,154.097198 147.202515,154.892899 149.922714,154.917435 
	C155.713547,154.969681 161.508011,154.621384 167.651459,154.218170 
	C171.310806,154.230560 174.619568,154.662430 177.928574,154.664093 
	C253.806168,154.702255 329.683777,154.689255 405.561401,154.708725 
	C408.718140,154.709534 411.874786,154.932343 415.579254,155.462982 
	C416.726105,156.657257 417.210205,157.573807 417.941406,158.203415 
	C429.853119,168.459915 436.002502,181.374451 436.003204,197.143707 
	C436.005981,259.941681 436.168365,322.740662 435.781097,385.536255 
	C435.736542,392.764923 433.818420,400.569672 430.608765,407.034821 
	C427.010773,414.282166 420.955597,420.309631 415.969604,426.867859 
	C412.665161,427.165955 409.360962,427.721191 406.056305,427.724030 
	C345.233673,427.776215 284.410767,427.836823 223.588562,427.673920 
	C215.410339,427.652008 208.354324,429.689514 201.590530,434.285645 
	C180.788483,448.420959 159.775040,462.245178 138.473511,475.826233 
	C138.061234,465.855469 138.116211,456.247009 137.942703,446.642639 
	C137.828796,440.336273 134.823547,436.657654 129.607285,436.084198 
	C125.671104,435.651520 121.715073,435.399445 117.767876,435.067017 
	C113.169785,429.149384 106.818169,427.388336 99.169174,426.982208 
	C84.177879,414.898346 77.340393,399.886078 77.932480,381.277863 
	C78.291756,369.986450 77.858994,358.671692 78.068069,347.372742 
	C78.145485,343.188995 76.601784,341.698730 72.529312,341.960510 
	C68.722023,342.205200 64.886627,342.012787 61.063606,342.012756 
	C60.986687,321.430664 60.885208,300.848602 60.841721,280.266418 
	C60.814011,267.150635 60.872253,254.034653 61.434143,240.457474 
	C65.465248,239.997467 68.973335,239.768616 72.438309,240.057297 
	C76.932983,240.431763 78.144646,238.472809 78.072411,234.237579 
	C77.862762,221.946884 78.020935,209.650238 77.994308,197.356018 
	C77.964050,183.382446 82.635040,171.405060 92.780212,161.614990 
	C94.759468,159.705017 96.259811,157.298752 97.981049,155.121399 
	C100.720642,154.765717 103.460243,154.410034 106.606270,154.039246 
	C115.529518,154.073196 124.046326,154.122253 132.906586,153.898102 
M142.380280,224.713135 
	C141.437958,225.039917 140.486954,225.343811 139.554581,225.696884 
	C122.192360,232.271896 111.502197,248.441010 112.004074,267.357391 
	C112.475578,285.129059 124.916710,301.026245 142.556641,306.397125 
	C159.685577,311.612457 178.415619,305.239410 189.087891,290.564514 
	C199.472000,276.285858 199.954849,256.968994 190.295959,242.234436 
	C180.064987,226.627243 162.727203,220.085403 142.380280,224.713135 
M370.067810,306.828674 
	C371.492126,306.369141 372.937134,305.964966 374.337646,305.441742 
	C395.072540,297.695038 406.435730,275.261230 400.419403,253.979080 
	C394.473297,232.945053 373.399017,219.586334 352.322418,223.490921 
	C328.614929,227.882889 312.997772,250.028946 317.392303,273.023956 
	C322.037994,297.333130 344.580322,312.100525 370.067810,306.828674 
M220.428009,327.955261 
	C215.624664,324.650940 211.560837,324.660553 208.332993,327.983917 
	C204.990280,331.425568 204.730576,336.548981 208.946152,340.423950 
	C214.028458,345.095581 219.441956,349.996765 225.621658,352.776428 
	C245.886856,361.891785 266.835907,361.994019 287.203888,353.298645 
	C293.998291,350.398010 299.904968,344.945770 305.502014,339.870911 
	C309.549591,336.200928 308.850616,330.663300 305.194733,327.492554 
	C301.460266,324.253723 296.474762,324.623383 292.822357,328.864777 
	C287.591949,334.938599 280.952576,338.460388 273.345825,340.314880 
	C261.968658,343.088531 250.559540,343.042297 239.249496,339.949707 
	C232.032349,337.976196 225.675308,334.475800 220.428009,327.955261 
z"/>
<path fill="#CAD9FC" opacity="1.000000" stroke="none" 
	d="
M416.374634,426.924957 
	C420.955597,420.309631 427.010773,414.282166 430.608765,407.034821 
	C433.818420,400.569672 435.736542,392.764923 435.781097,385.536255 
	C436.168365,322.740662 436.005981,259.941681 436.003204,197.143707 
	C436.002502,181.374451 429.853119,168.459915 417.941406,158.203415 
	C417.210205,157.573807 416.726105,156.657257 416.036926,155.556656 
	C435.099152,156.780960 451.840912,174.100342 453.010620,193.600082 
	C453.110199,195.260162 453.140472,196.926636 453.140625,198.590134 
	C453.146301,260.330292 453.194122,322.070496 453.116913,383.810547 
	C453.090088,405.271942 439.911163,421.991486 419.740997,426.618988 
	C418.776855,426.840210 417.767792,426.865540 416.374634,426.924957 
z"/>
<path fill="#FDFEFF" opacity="1.000000" stroke="none" 
	d="
M40.851364,333.811096 
	C38.690628,333.818024 36.518711,333.970978 34.371090,333.806519 
	C25.042978,333.092438 18.193968,326.162018 18.097939,316.822418 
	C17.921871,299.698639 17.923815,282.570526 18.098536,265.446747 
	C18.192781,256.209930 24.641939,249.545578 33.875492,248.587524 
	C35.852005,248.382431 37.859474,248.475677 40.223045,248.757950 
	C35.882355,256.143188 34.744610,263.964294 34.989925,272.310699 
	C35.316383,283.417694 35.285828,294.546967 35.006252,305.656525 
	C34.757072,315.558167 35.040897,325.224213 40.851364,333.811096 
z"/>
<path fill="#7FACFA" opacity="1.000000" stroke="none" 
	d="
M472.826080,248.692276 
	C487.039215,246.583298 495.955200,254.041046 495.984528,268.123627 
	C496.015411,282.933655 495.996307,297.743805 495.990570,312.553894 
	C495.984711,327.709229 488.810242,334.556824 473.434143,333.407837 
	C477.567047,326.700989 479.248627,319.710938 479.082825,311.944061 
	C478.782104,297.861359 478.787445,283.763245 479.080414,269.680176 
	C479.242554,261.886536 477.395050,254.949020 472.826080,248.692276 
z"/>
<path fill="#FEFEFF" opacity="1.000000" stroke="none" 
	d="
M97.588905,155.105286 
	C96.259811,157.298752 94.759468,159.705017 92.780212,161.614990 
	C82.635040,171.405060 77.964050,183.382446 77.994308,197.356018 
	C78.020935,209.650238 77.862762,221.946884 78.072411,234.237579 
	C78.144646,238.472809 76.932983,240.431763 72.438309,240.057297 
	C68.973335,239.768616 65.465248,239.997467 61.511562,239.993652 
	C61.032410,224.238831 60.430698,208.459488 61.155712,192.741318 
	C62.017429,174.059402 77.034149,158.977005 97.588905,155.105286 
z"/>
<path fill="#FEFEFF" opacity="1.000000" stroke="none" 
	d="
M60.979668,342.474121 
	C64.886627,342.012787 68.722023,342.205200 72.529312,341.960510 
	C76.601784,341.698730 78.145485,343.188995 78.068069,347.372742 
	C77.858994,358.671692 78.291756,369.986450 77.932480,381.277863 
	C77.340393,399.886078 84.177879,414.898346 98.812454,426.808502 
	C79.442276,426.125580 61.712418,408.333160 61.042999,388.257050 
	C60.539768,373.165009 60.912785,358.043762 60.979668,342.474121 
z"/>
<path fill="#F9FBFF" opacity="1.000000" stroke="none" 
	d="
M117.875793,435.442261 
	C121.715073,435.399445 125.671104,435.651520 129.607285,436.084198 
	C134.823547,436.657654 137.828796,440.336273 137.942703,446.642639 
	C138.116211,456.247009 138.061234,465.855469 138.146103,475.964661 
	C132.611664,480.301788 127.034386,484.136475 120.388031,488.706238 
	C120.388031,485.795715 120.388191,484.049866 120.387993,482.303986 
	C120.386665,470.493774 120.572350,458.678864 120.273750,446.876160 
	C120.180061,443.173004 118.783775,439.502808 117.875793,435.442261 
z"/>
<path fill="#FCFDFF" opacity="1.000000" stroke="none" 
	d="
M258.973755,68.955940 
	C243.864761,69.763847 231.953033,59.143620 231.386932,44.360126 
	C230.829315,29.798100 242.559998,18.248386 258.426392,18.441078 
	C258.205933,19.860445 257.628784,20.927719 256.755890,22.170578 
	C248.335220,31.273090 247.419342,41.965286 250.062469,52.912006 
	C251.110825,57.253788 254.656647,60.992535 257.122864,65.317062 
	C257.778137,66.737511 258.375946,67.846725 258.973755,68.955940 
z"/>
<path fill="#C8D8FC" opacity="1.000000" stroke="none" 
	d="
M257.051605,21.994991 
	C257.628784,20.927719 258.205933,19.860445 258.849060,18.497280 
	C272.825104,19.988405 282.342651,30.021862 282.643768,43.216354 
	C282.940796,56.231712 273.477325,66.911438 259.373474,68.991074 
	C258.375946,67.846725 257.778137,66.737511 257.404968,65.139954 
	C268.160828,53.500458 267.867279,31.838074 257.051605,21.994991 
z"/>
<path fill="#A3C2F7" opacity="1.000000" stroke="none" 
	d="
M472.471985,248.622833 
	C477.395050,254.949020 479.242554,261.886536 479.080414,269.680176 
	C478.787445,283.763245 478.782104,297.861359 479.082825,311.944061 
	C479.248627,319.710938 477.567047,326.700989 472.983643,333.335327 
	C471.961823,332.436676 470.284180,331.239105 470.277222,330.031891 
	C470.127350,303.987732 470.139893,277.942352 470.247375,251.897736 
	C470.251984,250.780411 471.466797,249.668076 472.471985,248.622833 
z"/>
<path fill="#A1C1F8" opacity="1.000000" stroke="none" 
	d="
M41.250397,333.832886 
	C35.040897,325.224213 34.757072,315.558167 35.006252,305.656525 
	C35.285828,294.546967 35.316383,283.417694 34.989925,272.310699 
	C34.744610,263.964294 35.882355,256.143188 40.636803,248.771317 
	C41.733936,249.739456 43.698009,251.014313 43.707047,252.302887 
	C43.888763,278.215485 43.876686,304.129761 43.754192,330.043030 
	C43.748169,331.316864 42.382164,332.584290 41.250397,333.832886 
z"/>
<path fill="#448EFF" opacity="1.000000" stroke="none" 
	d="
M142.766602,224.579865 
	C162.727203,220.085403 180.064987,226.627243 190.295959,242.234436 
	C199.954849,256.968994 199.472000,276.285858 189.087891,290.564514 
	C178.415619,305.239410 159.685577,311.612457 142.556641,306.397125 
	C124.916710,301.026245 112.475578,285.129059 112.004074,267.357391 
	C111.502197,248.441010 122.192360,232.271896 139.554581,225.696884 
	C140.486954,225.343811 141.437958,225.039917 142.766602,224.579865 
M138.328964,285.222015 
	C149.702744,293.212372 162.421844,292.939941 171.799194,284.505066 
	C180.637497,276.555054 182.809128,262.863007 176.565918,252.541885 
	C170.941467,243.243668 162.339859,238.984940 151.665451,240.200165 
	C141.398270,241.369003 134.093475,247.290665 130.599533,257.046814 
	C126.777206,267.719940 129.767319,276.982147 138.328964,285.222015 
z"/>
<path fill="#448EFF" opacity="1.000000" stroke="none" 
	d="
M369.657654,306.911377 
	C344.580322,312.100525 322.037994,297.333130 317.392303,273.023956 
	C312.997772,250.028946 328.614929,227.882889 352.322418,223.490921 
	C373.399017,219.586334 394.473297,232.945053 400.419403,253.979080 
	C406.435730,275.261230 395.072540,297.695038 374.337646,305.441742 
	C372.937134,305.964966 371.492126,306.369141 369.657654,306.911377 
M335.014618,273.162964 
	C339.806091,285.856537 350.966278,292.791504 363.425812,290.817749 
	C375.337677,288.930725 384.808563,278.271973 384.935822,266.187561 
	C385.047852,255.551575 380.097076,247.483292 370.758514,242.728226 
	C361.132172,237.826630 351.591034,239.046692 343.195465,245.882904 
	C334.731049,252.775162 332.390472,261.880188 335.014618,273.162964 
z"/>
<path fill="#458EFF" opacity="1.000000" stroke="none" 
	d="
M220.679977,328.216217 
	C225.675308,334.475800 232.032349,337.976196 239.249496,339.949707 
	C250.559540,343.042297 261.968658,343.088531 273.345825,340.314880 
	C280.952576,338.460388 287.591949,334.938599 292.822357,328.864777 
	C296.474762,324.623383 301.460266,324.253723 305.194733,327.492554 
	C308.850616,330.663300 309.549591,336.200928 305.502014,339.870911 
	C299.904968,344.945770 293.998291,350.398010 287.203888,353.298645 
	C266.835907,361.994019 245.886856,361.891785 225.621658,352.776428 
	C219.441956,349.996765 214.028458,345.095581 208.946152,340.423950 
	C204.730576,336.548981 204.990280,331.425568 208.332993,327.983917 
	C211.560837,324.660553 215.624664,324.650940 220.679977,328.216217 
z"/>
<path fill="#E8EDFC" opacity="1.000000" stroke="none" 
	d="
M256.755890,22.170574 
	C267.867279,31.838074 268.160828,53.500458 257.347504,64.828735 
	C254.656647,60.992535 251.110825,57.253788 250.062469,52.912006 
	C247.419342,41.965286 248.335220,31.273090 256.755890,22.170574 
z"/>
<path fill="#A3C1F7" opacity="1.000000" stroke="none" 
	d="
M138.042450,285.002991 
	C129.767319,276.982147 126.777206,267.719940 130.599533,257.046814 
	C134.093475,247.290665 141.398270,241.369003 151.665451,240.200165 
	C162.339859,238.984940 170.941467,243.243668 176.565918,252.541885 
	C182.809128,262.863007 180.637497,276.555054 171.799194,284.505066 
	C162.421844,292.939941 149.702744,293.212372 138.042450,285.002991 
z"/>
<path fill="#A3C1F7" opacity="1.000000" stroke="none" 
	d="
M334.919556,272.760681 
	C332.390472,261.880188 334.731049,252.775162 343.195465,245.882904 
	C351.591034,239.046692 361.132172,237.826630 370.758514,242.728226 
	C380.097076,247.483292 385.047852,255.551575 384.935822,266.187561 
	C384.808563,278.271973 375.337677,288.930725 363.425812,290.817749 
	C350.966278,292.791504 339.806091,285.856537 334.919556,272.760681 
z"/>
</svg>